#!OML:ASF X:\für Bonn\!DataBase\2005_08_12_Daniel\c3d\Daniel.ASF
:FULLY-SPECIFIED
:DEGREES
161
root -0.11347 16.9121 -0.64195 72.5238 -86.2715 -82.4424
lowerback 26.2508 -2.42456 5.68397
upperback 1.61598 -1.77203 -0.637822
thorax -13.0665 -1.25108 -3.33794
lowerneck 7.23036 1.99335 -1.99992
upperneck 5.58835 2.34614 0.379204
head 0.498823 1.06593 0.400132
rclavicle -3.52843e-015 2.38542e-015
rhumerus 57.0202 -1.55799 -103.635
rradius 9.30329
rwrist 66.3909
rhand -19.2917 8.83181
rfingers 7.12502
rthumb 7.02355 -21.0317
lclavicle -3.52843e-015 2.38542e-015
lhumerus 61.4877 7.37915 107.607
lradius 8.86971
lwrist -84.4987
lhand -16.6747 0.93166
lfingers 7.12502
lthumb 9.54926 30.6953
rfemur -3.54699 -7.26484 15.7758
rtibia 37.7978
rfoot -16.4337 2.78099
rtoes -11.0887
lfemur -9.41547 -2.02469 -10.1735
ltibia 44.2439
lfoot -26.3877 1.61253
ltoes 1.27727
162
root -0.139553 16.9315 -0.648613 73.2403 -86.3893 -83.0243
lowerback 25.7415 -2.37388 5.54778
upperback 1.48875 -1.77563 -0.73064
thorax -12.9388 -1.2435 -3.3718
lowerneck 7.08485 1.99854 -1.87482
upperneck 5.85047 2.36113 0.358813
head 0.603644 1.0721 0.376381
rclavicle -9.91439e-015 -9.54166e-015
rhumerus 56.878 -1.57896 -103.66
rradius 9.37869
rwrist 66.1152
rhand -19.4676 8.86026
rfingers 7.12502
rthumb 6.85378 -21.0088
lclavicle -9.91439e-015 -9.54166e-015
lhumerus 61.5859 7.2708 107.393
lradius 8.70839
lwrist -84.3588
lhand -16.7606 1.06037
lfingers 7.12502
lthumb 9.46635 30.8278
rfemur -2.52961 -6.63074 15.9327
rtibia 36.1994
rfoot -17.4848 2.25584
rtoes -11.186
lfemur -8.86418 -2.74333 -10.509
ltibia 43.4286
lfoot -26.8835 2.37672
ltoes 1.28523
163
root -0.16421 16.9493 -0.654751 73.7277 -86.5356 -83.353
lowerback 25.2153 -2.33055 5.39917
upperback 1.36867 -1.79578 -0.849043
thorax -12.7941 -1.24346 -3.42169
lowerneck 7.00689 2.00207 -1.66713
upperneck 6.0414 2.37906 0.296681
head 0.677441 1.08216 0.325447
rclavicle 4.44781e-015 1.59028e-015
rhumerus 56.7822 -1.60551 -103.709
rradius 9.42236
rwrist 65.8138
rhand -19.5936 8.86451
rfingers 7.12502
rthumb 6.7321 -21.0085
lclavicle 4.44781e-015 1.59028e-015
lhumerus 61.7146 7.14025 107.159
lradius 8.51263
lwrist -84.1297
lhand -16.941 1.23999
lfingers 7.12502
lthumb 9.29223 31.0152
rfemur -1.59172 -5.89787 16.0894
rtibia 34.6605
rfoot -18.5251 1.62818
rtoes -11.2317
lfemur -8.41004 -3.52035 -10.8973
ltibia 42.7199
lfoot -27.3801 3.18826
ltoes 1.24329
164
root -0.188668 16.9633 -0.660131 74.4817 -86.6993 -83.9772
lowerback 24.6959 -2.27617 5.25305
upperback 1.28388 -1.80253 -0.977694
thorax -12.6095 -1.23716 -3.48916
lowerneck 6.92998 2.00352 -1.49452
upperneck 6.20888 2.39097 0.276402
head 0.74312 1.08922 0.293068
rclavicle 1.54058e-014 -4.77083e-015
rhumerus 56.775 -1.63803 -103.755
rradius 9.38955
rwrist 65.5129
rhand -19.7137 8.84175
rfingers 7.12502
rthumb 6.61621 -21.0349
lclavicle 1.54058e-014 -4.77083e-015
lhumerus 61.8717 6.96788 106.94
lradius 8.25717
lwrist -83.8349
lhand -17.2276 1.48666
lfingers 7.12502
lthumb 9.01575 31.274
rfemur -0.694659 -5.04833 16.2632
rtibia 33.2075
rfoot -19.5251 0.844963
rtoes -11.3126
lfemur -7.97863 -4.30662 -11.3108
ltibia 42.0995
lfoot -27.8972 4.01832
ltoes 1.24079
165
root -0.211803 16.976 -0.66497 75.2334 -86.8788 -84.6011
lowerback 24.1699 -2.22098 5.08904
upperback 1.23069 -1.81265 -1.09888
thorax -12.3827 -1.23026 -3.53616
lowerneck 6.83444 1.99965 -1.33227
upperneck 6.33285 2.39788 0.216951
head 0.798954 1.09446 0.2505
rclavicle 6.28657e-015 7.95139e-015
rhumerus 56.8115 -1.62954 -103.789
rradius 9.35034
rwrist 65.2806
rhand -19.8202 8.7817
rfingers 7.12502
rthumb 6.51335 -21.0981
lclavicle 6.28657e-015 7.95139e-015
lhumerus 62.0856 6.80815 106.739
lradius 7.95941
lwrist -83.5043
lhand -17.6186 1.79102
lfingers 7.12502
lthumb 8.63845 31.5943
rfemur 0.117255 -4.1349 16.4455
rtibia 31.8454
rfoot -20.3374 -0.0452091
rtoes -11.4234
lfemur -7.60274 -5.12394 -11.7539
ltibia 41.5613
lfoot -28.4035 4.86521
ltoes 1.30144
166
root -0.234387 16.9862 -0.669558 76.2279 -87.0611 -85.4877
lowerback 23.6612 -2.1604 4.90705
upperback 1.18983 -1.81664 -1.20729
thorax -12.1486 -1.21916 -3.55958
lowerneck 6.76455 1.99752 -1.17947
upperneck 6.44099 2.40653 0.132711
head 0.846124 1.10033 0.201569
rclavicle 1.28465e-014 -9.93923e-015
rhumerus 56.8981 -1.61453 -103.798
rradius 9.23203
rwrist 65.1091
rhand -19.8413 8.66681
rfingers 7.12502
rthumb 6.49304 -21.2137
lclavicle 1.28465e-014 -9.93923e-015
lhumerus 62.2833 6.68019 106.545
lradius 7.69098
lwrist -83.1688
lhand -17.9464 2.04665
lfingers 7.12502
lthumb 8.32204 31.8627
rfemur 0.852229 -3.17201 16.6481
rtibia 30.6042
rfoot -21.1267 -1.06804
rtoes -11.6839
lfemur -7.25291 -5.95773 -12.2019
ltibia 41.0963
lfoot -28.9121 5.72582
ltoes 1.30959
